<svg width="34" height="34" viewBox="0 0 34 34" fill="none" xmlns="http://www.w3.org/2000/svg">
<circle cx="17" cy="17" r="16" stroke="#B6BEC3"/>
<ellipse cx="13.7237" cy="19.5524" rx="0.547945" ry="0.546822" stroke="#FAFAFA"/>
<g opacity="0.75" clip-path="url(#clip0_1_559)">
<rect width="0.547945" height="0.519481" transform="translate(13.4492 19.3335)" fill="#FAFAFA"/>
<path d="M13.9749 19.3982C13.9531 19.4128 13.9289 19.424 13.9032 19.4314C13.8895 19.4163 13.8712 19.4057 13.8509 19.4009C13.8306 19.396 13.8092 19.3972 13.7896 19.4043C13.77 19.4114 13.7532 19.4241 13.7414 19.4405C13.7297 19.457 13.7235 19.4765 13.7238 19.4964V19.5181C13.6837 19.5191 13.6439 19.5106 13.6081 19.4935C13.5722 19.4764 13.5414 19.4511 13.5183 19.4199C13.5183 19.4199 13.427 19.6151 13.6325 19.7018C13.5855 19.7321 13.5294 19.7473 13.4727 19.7452C13.6781 19.8536 13.9293 19.7452 13.9293 19.4958C13.9293 19.4897 13.9286 19.4837 13.9275 19.4778C13.9508 19.4559 13.9672 19.4284 13.9749 19.3982Z" stroke="#BDBDBD" stroke-width="1.5" stroke-linecap="round" stroke-linejoin="round"/>
</g>
<g clip-path="url(#clip1_1_559)">
<path fill-rule="evenodd" clip-rule="evenodd" d="M23.6587 12.3941C23.8311 12.8363 23.9514 13.3467 23.9842 14.089C24.017 14.8342 24.0197 15.0716 24.0197 16.9685C24.0197 18.8653 24.0115 19.1028 23.9787 19.8479C23.9459 20.5902 23.8255 21.0979 23.6533 21.5428C23.2895 22.4817 22.5457 23.224 21.6048 23.587C21.1618 23.759 20.6504 23.879 19.9065 23.9118C19.1598 23.9446 18.9219 23.9527 17.0212 23.9527C15.1204 23.9527 14.8824 23.9446 14.1358 23.9118C13.3918 23.879 12.8832 23.759 12.4374 23.587C11.9725 23.4124 11.5486 23.1367 11.1985 22.7819C10.8429 22.4325 10.5668 22.0122 10.389 21.5428C10.2167 21.1006 10.0963 20.5902 10.0635 19.8479C10.0307 19.1028 10.0225 18.8653 10.0225 16.9685C10.0225 15.0716 10.0307 14.8342 10.0663 14.0863C10.0991 13.3439 10.2194 12.8363 10.3917 12.3914C10.5668 11.9275 10.8429 11.5044 11.1985 11.155C11.5486 10.7975 11.9697 10.5245 12.4402 10.3471C12.8832 10.1753 13.3946 10.0551 14.1385 10.0224C14.8851 9.98965 15.1231 9.98145 17.0238 9.98145C18.9246 9.98145 19.1625 9.98965 19.9119 10.0252C20.6558 10.0579 21.1645 10.1779 21.6102 10.3499C22.0752 10.5245 22.4991 10.8002 22.8492 11.155C23.2075 11.5044 23.481 11.9247 23.6587 12.3941Z" fill="#B6BEC3"/>
<path d="M17.0261 13.3799C15.0406 13.3799 13.4297 14.9874 13.4297 16.9689C13.4297 18.9504 15.0406 20.558 17.0261 20.558C19.0117 20.558 20.6225 18.9504 20.6225 16.9689C20.6225 14.9874 19.0117 13.3799 17.0261 13.3799ZM17.0261 19.297C15.738 19.297 14.6932 18.2545 14.6932 16.9689C14.6932 15.6834 15.738 14.6408 17.0261 14.6408C18.3143 14.6408 19.359 15.6834 19.359 16.9689C19.359 18.2545 18.3143 19.297 17.0261 19.297Z" fill="#474F5A"/>
<path d="M21.6051 13.2373C21.6051 13.7 21.2291 14.0752 20.7654 14.0752C20.3017 14.0752 19.9258 13.7 19.9258 13.2373C19.9258 12.7745 20.3017 12.3994 20.7654 12.3994C21.2291 12.3994 21.6051 12.7745 21.6051 13.2373Z" fill="#474F5A"/>
</g>
<defs>
<clipPath id="clip0_1_559">
<rect width="0.547945" height="0.519481" fill="white" transform="translate(13.4492 19.3335)"/>
</clipPath>
<clipPath id="clip1_1_559">
<rect width="14" height="13.9713" fill="white" transform="translate(10 9.98145)"/>
</clipPath>
</defs>
</svg>
