<svg width="34" height="34" viewBox="0 0 34 34" fill="none" xmlns="http://www.w3.org/2000/svg">
<circle cx="17" cy="17" r="16" stroke="#B6BEC3"/>
<path d="M23.9977 21.9567V21.9562H24.0012V16.8322C24.0012 14.3255 23.4605 12.3945 20.524 12.3945C19.1123 12.3945 18.165 13.1676 17.7782 13.9005H17.7374V12.6286H14.9531V21.9562H17.8523V17.3375C17.8523 16.1214 18.0833 14.9455 19.5924 14.9455C21.0793 14.9455 21.1015 16.3333 21.1015 17.4155V21.9567H23.9977Z" fill="#B6BEC3"/>
<path d="M10.2314 12.6294H13.1341V21.957H10.2314V12.6294Z" fill="#B6BEC3"/>
<path d="M11.6812 7.9856C10.7531 7.9856 10 8.73714 10 9.66332C10 10.5895 10.7531 11.3568 11.6812 11.3568C12.6092 11.3568 13.3623 10.5895 13.3623 9.66332C13.3617 8.73714 12.6087 7.9856 11.6812 7.9856V7.9856Z" fill="#B6BEC3"/>
</svg>
